<?xml version="1.0" standalone="no"?>
<!DOCTYPE svg PUBLIC "-//W3C//DTD SVG 20010904//EN"
 "http://www.w3.org/TR/2001/REC-SVG-20010904/DTD/svg10.dtd">
<svg version="1.0" xmlns="http://www.w3.org/2000/svg"
 width="1226.000000pt" height="1226.000000pt" viewBox="0 0 1226.000000 1226.000000"
 preserveAspectRatio="xMidYMid meet">
<metadata>
Created by potrace 1.11, written by Peter Selinger 2001-2013
</metadata>
<g transform="translate(0.000000,1226.000000) scale(0.100000,-0.100000)"
fill="#000000" stroke="none">
<path d="M6209 11729 c-46 -25 -142 -42 -182 -34 -18 4 -62 16 -98 27 l-65 21
-105 -38 c-57 -20 -144 -44 -194 -52 -98 -16 -183 -38 -230 -58 -50 -23 -157
-55 -180 -55 -13 0 -27 -6 -33 -13 -6 -7 -54 -34 -107 -61 -61 -31 -107 -62
-123 -83 -15 -18 -45 -46 -67 -61 -22 -14 -49 -34 -60 -44 -11 -9 -35 -29 -53
-44 -18 -14 -48 -50 -67 -79 -20 -29 -51 -65 -69 -79 -18 -14 -50 -51 -71 -83
-21 -32 -52 -74 -70 -93 -24 -26 -34 -48 -39 -85 -11 -79 -15 -86 -70 -110
-81 -36 -89 -47 -81 -117 8 -66 -3 -88 -41 -88 -35 0 -47 -32 -40 -109 8 -75
-3 -123 -35 -157 -22 -23 -22 -24 -4 -64 15 -33 17 -52 10 -107 -4 -38 -7 -88
-6 -113 1 -24 -10 -86 -25 -138 -31 -109 -29 -139 14 -238 17 -38 38 -103 48
-144 9 -41 25 -92 36 -113 17 -35 18 -44 7 -88 -17 -64 -2 -171 44 -324 31
-102 36 -111 63 -119 47 -14 59 -23 56 -42 -13 -70 -13 -90 -2 -129 17 -59 40
-78 140 -110 47 -15 98 -34 113 -42 16 -8 61 -22 100 -32 89 -23 100 -38 63
-81 -15 -18 -41 -59 -57 -92 -52 -103 -125 -201 -175 -238 -153 -109 -316
-255 -548 -489 -239 -241 -340 -353 -384 -424 -9 -16 -41 -68 -71 -115 -56
-90 -127 -269 -154 -389 -9 -37 -23 -137 -32 -221 -8 -85 -22 -170 -30 -189
-39 -92 -47 -204 -46 -615 l2 -396 -68 -35 c-142 -72 -260 -154 -338 -236
l-42 -44 -79 13 c-49 7 -144 10 -249 8 -261 -6 -406 -43 -653 -165 -271 -135
-452 -331 -569 -618 l-46 -110 -1 -155 c-1 -136 2 -166 23 -240 69 -245 255
-499 461 -632 182 -117 445 -226 605 -251 50 -7 169 -11 316 -10 211 1 241 4
290 22 30 12 62 21 71 21 23 0 38 -30 38 -74 0 -37 56 -243 85 -311 79 -188
180 -340 319 -480 135 -136 252 -213 384 -255 44 -14 102 -68 102 -95 0 -21
65 -216 91 -273 12 -26 30 -65 40 -87 24 -51 68 -130 99 -176 14 -20 47 -70
74 -110 63 -94 288 -319 386 -387 183 -125 318 -192 530 -262 152 -50 255 -63
495 -64 248 0 332 13 540 82 225 76 509 253 688 430 81 79 213 252 284 372 58
98 143 262 143 277 0 5 9 18 20 28 16 15 32 17 91 13 39 -3 87 -2 107 3 21 5
72 14 114 19 42 6 109 24 147 40 38 17 76 30 84 30 7 0 55 20 105 45 254 123
488 330 622 550 100 163 180 347 210 485 23 101 30 105 135 62 170 -70 152
-67 385 -66 181 0 222 3 260 18 25 10 71 26 103 37 32 10 93 38 135 60 335
181 552 475 643 869 18 79 15 317 -5 410 -49 221 -138 431 -234 551 -59 74
-176 191 -242 241 -99 75 -251 150 -360 176 -47 11 -110 26 -140 34 -94 22
-271 12 -392 -24 -47 -14 -62 -3 -77 55 -27 106 -218 322 -327 369 -33 14 -64
37 -64 49 0 4 27 41 59 82 76 96 122 166 258 399 12 21 30 60 39 87 24 75 41
86 111 72 54 -10 149 -52 235 -103 71 -43 116 12 84 101 -9 25 -16 58 -16 72
0 15 -6 32 -14 38 -7 6 -16 33 -20 59 -13 103 -102 231 -172 248 -43 11 -367
-14 -393 -30 -7 -5 -66 -9 -132 -10 -116 -2 -119 -2 -149 -31 -16 -16 -30 -34
-30 -39 0 -6 -7 -24 -16 -41 -26 -50 -19 -109 29 -234 17 -46 33 -156 36 -248
1 -17 6 -22 23 -20 15 1 23 -4 26 -18 2 -11 14 -44 28 -73 13 -29 24 -62 24
-73 0 -11 5 -17 10 -14 6 3 10 15 10 26 0 12 7 19 20 19 14 0 18 5 14 18 -4
13 -1 12 14 -5 24 -28 32 -29 33 -5 0 11 2 13 6 4 3 -8 -8 -30 -24 -50 -51
-65 -93 -130 -93 -146 0 -8 -4 -18 -10 -21 -6 -3 -7 1 -4 9 8 20 -14 20 -40 1
-10 -8 -22 -12 -27 -10 -4 3 -10 1 -14 -5 -7 -11 39 -25 54 -15 6 3 11 2 11
-3 0 -21 -29 -19 -86 7 -32 15 -80 33 -107 41 -53 14 -71 30 -35 30 18 0 20 2
9 9 -11 7 -5 11 22 16 40 8 54 19 37 30 -6 4 -18 1 -26 -6 -8 -6 -17 -10 -19
-7 -10 10 7 36 27 41 11 3 17 10 14 16 -4 5 -2 12 4 16 6 3 10 -4 11 -17 1
-17 3 -15 9 10 7 32 32 69 58 85 7 5 12 29 12 57 0 47 -1 49 -22 41 -13 -5
-23 -13 -23 -19 0 -6 -3 -13 -7 -17 -5 -6 -93 -31 -158 -47 -10 -2 -15 5 -15
20 0 13 -7 27 -15 32 -12 8 -9 10 10 10 l25 1 -27 20 c-28 21 -37 52 -18 64
13 8 13 55 1 55 -16 0 -17 34 -2 46 13 10 11 13 -7 18 -24 8 -30 44 -11 63 13
13 -26 83 -47 83 -8 0 -11 6 -8 15 4 9 0 15 -7 16 -8 0 -5 4 6 9 11 5 14 9 8
9 -18 1 -16 21 1 21 8 0 14 8 13 19 -2 37 69 155 143 237 90 99 100 111 100
121 0 5 20 21 46 36 25 15 42 32 39 37 -3 6 0 10 8 10 18 0 30 27 16 36 -6 3
26 32 71 65 81 59 91 65 89 52 -3 -22 14 -51 27 -46 8 3 14 0 14 -6 0 -6 -7
-11 -15 -11 -17 0 -18 -14 -5 -45 7 -17 9 -16 10 10 1 17 4 24 7 18 2 -7 9
-13 14 -13 6 0 7 6 2 12 -4 7 -7 22 -8 33 0 11 -6 19 -12 18 -15 -3 -16 6 -4
26 6 9 16 -2 35 -42 29 -61 32 -87 15 -120 -13 -26 -141 -152 -161 -159 -7 -3
-10 -9 -5 -14 4 -4 29 13 55 37 86 83 85 83 262 75 l156 -7 41 30 c23 16 49
41 60 55 10 14 32 41 48 60 17 19 36 56 44 85 24 93 41 76 64 -64 10 -55 17
-147 17 -205 0 -59 8 -144 17 -195 10 -49 18 -116 17 -149 l0 -58 55 6 c31 3
115 12 186 21 72 8 173 18 225 21 52 3 122 12 155 19 94 22 292 38 380 31 136
-11 299 25 324 72 22 41 23 205 2 371 -12 91 -21 188 -21 216 0 29 -4 65 -9
81 -5 16 -22 68 -36 115 -14 48 -35 95 -45 104 -22 20 -15 20 -185 -25 -237
-63 -416 -96 -625 -116 -284 -27 -484 -57 -507 -76 -20 -16 -59 -106 -82 -187
-11 -41 -24 -78 -29 -83 -13 -13 -52 5 -101 46 -52 44 -281 156 -317 156 -9 0
-43 13 -75 30 -32 16 -80 32 -107 36 -42 5 -52 3 -78 -19 -16 -13 -56 -39 -89
-56 -58 -31 -127 -73 -255 -156 -34 -22 -79 -51 -100 -65 -21 -14 -52 -43 -68
-66 -25 -34 -38 -42 -83 -52 -71 -15 -146 -24 -184 -23 -63 3 -107 -82 -83
-161 18 -61 41 -71 150 -67 89 4 93 3 96 -18 2 -12 -7 -41 -18 -64 -18 -34
-24 -70 -30 -174 -13 -196 -90 -438 -153 -480 -14 -9 -81 -27 -149 -41 -67
-14 -141 -33 -163 -44 -22 -10 -60 -27 -85 -39 -74 -34 -183 -100 -215 -132
-30 -28 -59 -36 -82 -21 -6 4 -30 50 -53 102 -23 52 -53 120 -67 150 -90 196
-103 247 -100 392 1 65 -3 134 -10 163 -30 119 -47 215 -51 288 -3 65 1 92 26
170 17 50 33 103 36 117 3 14 26 61 51 105 26 44 69 124 97 178 l51 98 -22 67
c-11 37 -26 92 -32 123 -10 55 -15 62 -129 179 -118 120 -149 144 -90 70 17
-21 30 -41 30 -45 0 -9 59 -94 88 -127 13 -14 21 -31 18 -37 -4 -5 5 -37 19
-70 30 -73 33 -170 7 -245 -19 -56 -63 -96 -84 -79 -15 13 -76 48 -137 80 -24
12 -50 28 -57 34 -8 7 -18 9 -21 5 -4 -4 5 -17 19 -29 63 -52 125 -239 114
-337 -33 -267 -33 -275 -9 -398 18 -92 42 -318 43 -399 0 -26 -29 -12 -61 30
-100 128 -184 217 -206 217 -60 0 -260 86 -294 126 -7 9 -31 28 -54 44 -23 16
-59 49 -80 75 l-38 47 31 -16 c31 -16 32 -16 33 6 0 17 2 19 7 8 8 -18 57 -19
73 -3 6 6 18 9 25 6 10 -4 13 0 8 13 -5 18 -5 18 6 2 6 -10 15 -18 20 -18 12
0 4 158 -9 174 -6 7 -9 15 -6 18 3 3 -1 18 -9 33 -8 16 -13 32 -10 37 3 4 -4
8 -15 8 -12 0 -21 3 -21 8 0 4 -11 20 -25 36 -14 16 -25 33 -25 38 0 18 -55 6
-89 -19 -75 -57 -321 -296 -321 -312 0 -9 15 -25 34 -35 45 -24 79 -61 130
-137 43 -66 89 -103 199 -163 123 -66 146 -85 193 -156 50 -75 65 -90 38 -39
-34 66 18 99 100 65 49 -21 161 -113 256 -211 8 -9 52 -53 96 -98 45 -45 91
-100 103 -122 12 -22 26 -47 33 -56 17 -24 3 -49 -27 -49 -14 0 -58 13 -97 30
-38 16 -79 30 -90 30 -11 0 -57 13 -103 29 -46 17 -104 32 -130 35 -176 21
-285 27 -401 21 -136 -8 -176 -3 -168 19 9 23 -85 277 -142 384 -55 104 -107
177 -128 177 -6 0 -17 4 -23 8 -8 5 -13 3 -13 -4 0 -7 -7 -4 -16 7 -14 18 -15
18 -8 -6 14 -53 249 -531 274 -558 17 -18 18 -21 3 -33 -8 -8 -46 -15 -84 -17
l-69 -4 0 49 c0 27 -9 75 -20 107 -24 66 -78 166 -90 166 -39 0 -22 -152 33
-306 16 -45 9 -64 -25 -64 -10 0 -64 -17 -121 -39 -114 -43 -233 -115 -346
-209 -40 -34 -78 -62 -83 -62 -5 0 -23 7 -40 16 -90 47 -244 94 -398 124 -215
41 -252 49 -254 52 -47 88 -123 255 -145 321 -17 49 -97 209 -154 307 -22 38
-87 200 -87 216 0 3 5 2 10 -1 6 -3 10 1 10 9 0 9 2 16 5 16 8 0 78 -80 97
-110 9 -16 23 -36 32 -47 123 -151 137 -162 246 -214 32 -15 67 -41 83 -63 16
-20 65 -74 110 -119 45 -45 111 -117 145 -160 69 -86 96 -103 122 -78 15 15
11 24 -60 116 -42 55 -83 111 -90 125 -12 23 -85 111 -150 181 -14 15 -46 51
-72 80 -26 30 -68 77 -93 104 -51 56 -165 220 -214 307 -41 73 -53 114 -37
127 8 7 25 -6 58 -47 78 -97 126 -144 133 -133 3 6 30 11 60 11 58 0 69 -7
105 -65 12 -20 25 -34 27 -31 10 9 -19 68 -74 152 -86 133 -100 168 -113 284
-7 58 -16 110 -20 115 -16 21 -18 56 -4 69 19 20 18 39 -6 66 -11 13 -20 32
-20 43 0 13 -5 17 -15 13 -11 -4 -15 2 -16 22 -4 57 3 97 17 109 9 6 19 39 24
74 5 34 14 65 21 69 6 4 8 13 5 19 -4 6 -1 14 7 17 8 3 18 21 21 40 4 20 13
34 21 34 8 0 15 9 15 20 0 19 4 21 40 24 8 1 14 9 12 18 -2 13 8 18 45 23 26
3 56 10 66 16 22 12 93 1 108 -17 6 -7 17 -10 25 -7 8 3 14 0 14 -6 0 -6 6 -8
13 -5 18 7 160 -145 193 -205 14 -25 31 -57 39 -71 8 -14 40 -72 71 -130 108
-199 100 -185 196 -326 42 -62 128 -147 128 -127 0 16 -30 106 -39 117 -5 6
-17 31 -27 56 -9 25 -25 56 -34 70 -17 25 -78 138 -186 348 -30 59 -73 136
-95 172 -54 89 -93 163 -80 155 6 -3 11 1 11 10 0 11 -5 15 -14 12 -8 -3 -13
1 -12 11 0 9 -4 16 -11 15 -7 -2 -18 7 -24 20 -11 20 -11 21 4 9 9 -8 20 -11
25 -8 6 3 12 -4 15 -15 3 -12 10 -18 17 -14 7 4 10 -5 9 -27 -1 -18 1 -43 5
-55 9 -27 43 -31 48 -5 3 14 11 9 42 -23 l38 -40 -5 35 c-3 19 -9 44 -13 55
-7 19 -7 19 13 2 11 -10 27 -15 37 -11 12 5 15 2 10 -10 -5 -12 0 -16 16 -16
17 0 21 -5 17 -19 -3 -14 2 -21 19 -25 13 -4 24 -11 24 -17 0 -6 5 -7 10 -4 6
3 10 2 10 -4 0 -5 -5 -11 -11 -13 -7 -2 -9 -13 -5 -24 5 -17 15 -21 61 -22 30
-1 55 3 55 8 0 15 28 12 54 -6 16 -10 26 -12 31 -5 8 14 72 14 80 1 10 -16 23
-12 27 8 3 15 6 14 23 -5 18 -21 65 -32 65 -15 0 4 26 8 59 8 32 1 68 7 81 14
13 7 25 8 29 3 3 -5 22 -19 43 -31 36 -22 79 -67 128 -133 14 -19 66 -78 115
-133 141 -155 212 -242 251 -308 6 -10 14 -15 17 -11 4 3 7 -1 7 -10 0 -10 5
-17 10 -17 6 0 22 -24 35 -52 30 -64 35 -158 9 -158 -8 0 -13 -4 -10 -8 3 -5
-1 -33 -8 -63 -7 -31 -10 -63 -7 -72 7 -19 45 -43 140 -88 36 -17 79 -42 96
-55 18 -13 35 -24 40 -24 21 0 -25 205 -140 615 -25 88 -45 170 -45 182 0 30
23 97 75 218 23 55 56 138 71 185 26 75 37 93 98 157 38 40 77 73 87 73 10 0
25 12 33 28 8 15 24 36 35 46 12 11 29 34 37 52 9 18 64 86 123 151 59 66 117
133 129 150 12 17 90 76 174 131 116 77 175 124 244 194 50 51 100 107 112
125 12 17 38 41 58 53 37 24 224 207 224 220 0 5 16 35 35 67 19 33 42 86 51
119 18 72 64 156 111 205 40 42 91 193 99 294 3 33 15 80 26 105 19 41 19 51
8 135 -6 49 -16 99 -21 110 -27 62 -49 134 -49 162 0 21 11 45 35 73 19 23 35
48 35 55 0 7 -11 35 -24 62 -13 26 -29 75 -36 108 -16 86 -30 125 -58 168 -25
38 -55 111 -72 175 -4 18 -24 65 -43 105 -20 40 -57 119 -83 177 -26 58 -56
119 -67 135 -19 29 -73 68 -179 128 -26 15 -68 53 -94 85 -57 71 -122 125
-194 163 -30 17 -70 41 -89 54 -19 14 -43 25 -55 25 -12 0 -39 12 -60 26 -44
30 -215 116 -326 164 -41 18 -79 36 -84 41 -6 5 -18 9 -27 9 -10 0 -33 9 -52
20 -34 20 -46 22 -129 20 -54 -2 -146 15 -201 36 -44 17 -42 17 -88 -7z m736
-2009 c3 -5 1 -10 -4 -10 -6 0 -11 5 -11 10 0 6 2 10 4 10 3 0 8 -4 11 -10z
m-28 -14 c-8 -20 3 -27 23 -16 24 13 44 -12 36 -45 -4 -15 -2 -25 4 -25 6 0 8
-5 5 -11 -4 -6 2 -17 13 -25 13 -9 20 -25 20 -44 l-1 -29 -38 30 c-21 16 -41
29 -46 28 -20 -3 -33 2 -30 12 1 6 -4 14 -12 17 -8 3 -11 0 -7 -7 9 -14 5 -14
-34 3 -18 7 -28 16 -23 19 5 3 15 2 23 -4 20 -12 33 -11 25 1 -9 14 1 12 35
-5 27 -14 30 -14 30 0 0 8 5 15 10 15 7 0 7 6 1 19 -8 14 -19 17 -44 15 -28
-3 -36 0 -44 19 -9 19 -8 26 6 35 24 16 54 15 48 -2z m-70 -62 c-3 -3 -12 -4
-19 -1 -8 3 -5 6 6 6 11 1 17 -2 13 -5z m-67 -14 c0 -5 -13 -10 -29 -10 -17 0
-33 5 -36 10 -4 6 8 10 29 10 20 0 36 -4 36 -10z m-506 -24 c-5 -21 -3 -23 20
-19 19 4 26 1 26 -11 0 -17 19 -20 104 -16 34 1 46 -1 42 -9 -4 -6 -12 -8 -18
-5 -7 4 -8 2 -4 -4 5 -9 17 -8 43 3 42 18 59 12 18 -7 -24 -11 -25 -13 -8 -19
15 -6 11 -10 -22 -26 -79 -37 -126 -74 -141 -110 -21 -48 -12 -74 38 -120 88
-80 195 -189 201 -206 4 -12 14 -17 24 -13 52 14 83 17 83 7 0 -6 -4 -11 -10
-11 -5 0 -10 -7 -10 -15 0 -8 -4 -15 -10 -15 -5 0 -10 -5 -10 -11 0 -8 12 -10
36 -6 46 8 48 10 32 36 -11 18 -11 23 1 30 11 7 10 10 -5 14 -19 5 -15 6 50
11 31 2 30 24 -1 29 -27 4 -27 5 -5 12 43 14 19 40 -28 30 -18 -4 -30 -13 -31
-23 0 -11 -4 -9 -10 7 -8 19 -6 27 6 33 22 13 19 27 -4 21 -15 -4 -20 0 -20
13 0 38 -14 104 -22 104 -5 0 1 11 13 25 24 27 43 33 35 11 -4 -10 -1 -13 8
-9 8 3 12 9 9 14 -10 17 17 9 100 -33 47 -23 88 -39 92 -36 9 10 -5 46 -29 72
-27 28 -194 110 -260 127 -26 6 -50 16 -53 21 -6 9 49 6 99 -7 51 -13 28 12
-25 28 -66 19 -26 22 45 3 29 -7 77 -19 107 -26 64 -14 164 -46 200 -63 13 -7
51 -39 84 -72 45 -46 61 -69 66 -100 13 -71 3 -513 -14 -600 -22 -117 -90
-288 -123 -308 -8 -5 -18 -20 -23 -33 -8 -20 -16 -24 -50 -24 -29 0 -40 -4
-40 -15 0 -26 -25 -16 -39 15 -13 32 -15 91 -5 170 4 34 -1 61 -21 115 -15 39
-27 88 -26 110 0 47 -23 95 -80 168 -28 35 -48 51 -60 49 -11 -2 -22 4 -25 13
-5 11 -9 13 -14 5 -5 -8 -17 -3 -37 14 -17 14 -35 26 -41 26 -5 0 -15 7 -22
15 -18 22 -53 20 -46 -2 3 -10 13 -47 22 -83 9 -36 22 -72 29 -80 41 -47 117
-168 97 -156 -6 3 -13 -5 -16 -19 -3 -13 -16 -30 -27 -36 -20 -10 -21 -9 -15
16 l7 27 -55 -7 c-50 -7 -62 -4 -129 29 -41 20 -89 39 -106 42 -17 4 -34 11
-37 15 -3 5 -18 9 -34 9 -19 0 -42 11 -62 29 -30 27 -32 32 -20 51 9 14 10 26
4 33 -6 7 -13 38 -17 71 -5 36 -11 53 -16 45 -18 -29 -20 3 -5 63 9 35 21 112
27 172 13 122 49 238 97 308 16 24 37 60 47 81 20 42 28 48 19 13z m656 14 c0
-5 -4 -10 -10 -10 -5 0 -10 5 -10 10 0 6 5 10 10 10 6 0 10 -4 10 -10z m-1277
-27 c-7 -2 -19 -2 -25 0 -7 3 -2 5 12 5 14 0 19 -2 13 -5z m1347 -96 c0 -6 -9
-2 -20 8 -11 10 -20 23 -20 28 0 6 9 2 20 -8 11 -10 20 -23 20 -28z m-740
-1053 c25 -3 61 -8 80 -11 46 -5 68 -26 51 -47 -31 -37 -78 -55 -171 -65 -91
-10 -140 -7 -140 9 0 4 -19 7 -42 6 -68 -1 -98 11 -98 37 0 13 6 31 13 42 16
21 78 30 106 16 14 -8 22 -7 31 4 19 23 57 26 170 9z m275 -168 c-1 -72 -5
-99 -17 -113 -8 -10 -18 -27 -22 -38 -3 -11 -20 -35 -36 -54 -38 -41 -62 -39
-157 19 -37 22 -70 40 -75 40 -4 0 -8 7 -8 15 0 8 -6 15 -14 15 -11 0 -9 10 8
42 19 36 36 50 107 86 67 34 181 78 209 81 3 1 5 -41 5 -93z m-1858 -598 c-3
-8 -6 -5 -6 6 -1 11 2 17 5 13 3 -3 4 -12 1 -19z m53 -68 c0 -5 -2 -10 -4 -10
-3 0 -8 5 -11 10 -3 6 -1 10 4 10 6 0 11 -4 11 -10z m257 -122 c-3 -8 -6 -5
-6 6 -1 11 2 17 5 13 3 -3 4 -12 1 -19z m-124 -38 c3 -11 1 -20 -4 -20 -5 0
-9 9 -9 20 0 11 2 20 4 20 2 0 6 -9 9 -20z m193 -27 c-11 -11 -19 6 -11 24 8
17 8 17 12 0 3 -10 2 -21 -1 -24z m64 -48 c0 -8 -4 -15 -10 -15 -5 0 -10 7
-10 15 0 8 5 15 10 15 6 0 10 -7 10 -15z m60 -55 c0 -5 -5 -10 -11 -10 -5 0
-7 5 -4 10 3 6 8 10 11 10 2 0 4 -4 4 -10z m180 -10 c0 -5 -2 -10 -4 -10 -3 0
-8 5 -11 10 -3 6 -1 10 4 10 6 0 11 -4 11 -10z m2894 -760 c14 -5 26 -17 26
-26 0 -35 -54 -122 -96 -155 -36 -28 -47 -45 -64 -100 -11 -36 -20 -77 -20
-91 0 -14 -12 -61 -26 -104 -15 -43 -30 -106 -34 -139 -15 -114 -34 -169 -64
-185 -26 -14 -28 -14 -47 9 -11 14 -17 31 -13 40 3 9 9 93 13 187 8 199 7 197
121 299 37 33 63 62 58 64 -5 1 -29 -2 -53 -8 -56 -14 -218 -14 -270 0 -69 19
-83 63 -37 117 25 29 34 33 117 42 50 6 140 21 200 34 129 27 155 29 189 16z
m-37 -1095 c119 -35 164 -51 299 -110 75 -33 232 -140 282 -192 52 -54 172
-234 172 -258 0 -10 -18 -24 -44 -36 -45 -20 -86 -60 -86 -85 0 -16 -43 -29
-65 -20 -28 10 -15 -8 47 -71 65 -66 93 -82 60 -35 -18 25 -19 31 -7 60 8 17
19 32 25 32 6 0 31 14 56 31 61 42 105 59 204 80 122 26 205 24 345 -10 152
-36 273 -88 400 -171 158 -103 247 -203 350 -395 41 -76 106 -293 126 -418 19
-126 7 -292 -32 -413 -78 -244 -213 -448 -391 -590 -121 -97 -193 -136 -353
-191 -194 -67 -407 -55 -654 35 -98 36 -135 55 -170 86 -49 46 -108 129 -141
199 -28 60 -54 76 -82 51 -25 -24 -20 -49 29 -139 36 -66 139 -185 161 -185
17 0 21 -26 7 -56 -8 -16 -32 -84 -54 -151 -66 -202 -163 -382 -297 -553 -117
-149 -367 -324 -593 -414 -84 -34 -283 -76 -395 -83 l-89 -6 6 29 c2 16 11 54
18 86 16 70 2 132 -33 142 -13 3 -26 2 -31 -3 -5 -5 -13 -59 -18 -121 -11
-129 -25 -171 -114 -342 -136 -264 -263 -426 -475 -607 -47 -40 -103 -82 -125
-93 -22 -12 -54 -31 -70 -44 -48 -36 -263 -139 -350 -167 -176 -57 -276 -72
-470 -72 -134 1 -202 6 -265 19 -47 10 -103 22 -125 26 -172 32 -458 168 -629
298 -119 91 -290 278 -378 412 -113 174 -163 280 -233 496 -54 163 -60 215
-45 347 13 114 6 147 -30 147 -11 0 -28 -12 -37 -27 -15 -22 -18 -49 -18 -155
0 -112 -2 -128 -16 -128 -15 0 -140 65 -208 108 -69 44 -240 222 -334 349 -94
126 -250 546 -226 610 4 11 22 26 41 34 45 18 107 61 142 98 22 23 27 35 22
55 -10 41 -47 33 -118 -25 -85 -68 -165 -103 -268 -118 -47 -7 -107 -17 -133
-22 -146 -28 -473 15 -672 89 -228 85 -391 180 -496 288 -184 193 -281 374
-311 587 -21 149 26 302 150 491 40 60 72 115 72 122 0 6 40 49 88 95 88 84
240 184 347 229 28 12 64 27 80 35 53 23 155 55 173 55 10 0 54 10 98 22 65
18 108 21 244 22 99 0 186 -4 218 -12 65 -15 179 -69 247 -116 95 -67 91 -63
80 -82 -20 -32 -273 -197 -305 -198 -38 -1 -38 -9 4 -53 l34 -36 74 74 c40 41
91 85 113 97 64 38 197 119 233 143 40 26 36 37 -7 15 -16 -9 -41 -16 -54 -16
-28 0 -77 35 -77 55 0 27 -61 84 -126 116 -75 38 -78 41 -61 62 32 41 295 205
417 260 201 91 328 123 610 153 l165 17 217 -31 c208 -30 344 -63 523 -126 80
-28 89 -43 56 -97 -25 -41 -27 -76 -4 -101 26 -29 41 -22 65 30 51 109 113
176 245 265 120 80 298 163 425 197 345 94 663 73 1063 -71 185 -67 299 -130
339 -188 46 -67 87 -111 101 -111 7 0 18 14 25 31 12 27 11 33 -9 57 -49 62
-55 74 -44 91 22 35 283 172 363 191 30 7 71 19 90 26 63 25 229 43 362 39
110 -3 144 -8 255 -40z"/>
<path d="M6770 9160 c0 -5 9 -10 20 -10 11 0 20 5 20 10 0 6 -9 10 -20 10 -11
0 -20 -4 -20 -10z"/>
<path d="M6070 8379 c0 -11 5 -17 10 -14 6 3 10 13 10 21 0 8 -4 14 -10 14 -5
0 -10 -9 -10 -21z"/>
<path d="M6000 5060 c-14 -4 -42 -8 -63 -9 -20 -1 -45 -5 -55 -11 -9 -5 -43
-12 -75 -15 -32 -4 -56 -9 -54 -12 3 -3 60 0 125 6 150 14 388 14 444 1 24 -5
79 -16 123 -24 93 -16 249 -59 267 -73 7 -5 33 -15 58 -23 25 -7 49 -17 54
-22 6 -4 17 -8 25 -8 21 1 -28 39 -50 40 -8 0 -19 4 -25 8 -5 5 -40 18 -79 31
-38 12 -78 27 -87 32 -10 5 -27 9 -37 9 -11 0 -30 4 -43 9 -13 5 -57 14 -98
21 -41 6 -83 16 -92 21 -10 5 -38 9 -62 9 -25 0 -47 4 -50 8 -7 11 -194 13
-226 2z"/>
<path d="M8044 5051 c4 -6 -1 -12 -11 -12 -20 -2 41 -15 127 -28 30 -5 66 -12
80 -16 86 -25 184 -57 199 -65 40 -21 122 -50 116 -40 -8 12 -97 54 -111 51
-6 -1 -17 6 -24 14 -7 8 -23 15 -36 15 -12 0 -26 5 -29 10 -3 6 -16 10 -29 10
-12 0 -26 3 -30 7 -10 11 -114 32 -159 32 -21 1 -52 8 -69 17 -16 9 -27 11
-24 5z"/>
<path d="M7745 5040 c-14 -6 2 -8 50 -8 52 0 62 2 40 8 -40 10 -66 10 -90 0z"/>
<path d="M7615 5019 c-5 -7 8 -8 41 -3 64 9 68 14 11 14 -25 0 -49 -5 -52 -11z"/>
<path d="M7528 5003 c-20 -5 -24 -23 -5 -23 6 0 21 7 31 15 20 15 11 18 -26 8z"/>
<path d="M5660 4990 c-8 -5 -10 -10 -5 -10 6 0 17 5 25 10 8 5 11 10 5 10 -5
0 -17 -5 -25 -10z"/>
<path d="M5510 4965 c-25 -13 -57 -24 -71 -25 -15 0 -47 -11 -70 -25 -24 -14
-50 -25 -57 -25 -7 0 -37 -18 -66 -40 -29 -22 -57 -40 -63 -40 -5 0 -22 -14
-39 -31 -16 -17 -55 -51 -86 -75 -57 -44 -65 -46 -114 -22 -12 5 -30 8 -40 6
-13 -3 -3 -10 31 -22 28 -11 59 -27 69 -37 19 -17 21 -16 85 41 113 100 371
250 500 291 41 12 42 14 20 20 -39 11 -52 9 -99 -16z"/>
<path d="M7415 4973 c-11 -3 -27 -11 -35 -18 -8 -8 -27 -16 -42 -20 -27 -7
-139 -75 -123 -75 5 0 49 20 99 44 50 25 103 48 119 51 15 4 30 11 33 16 5 9
-17 10 -51 2z"/>
<path d="M8589 4861 c13 -12 28 -21 35 -21 12 0 -5 14 -39 31 -16 8 -15 6 4
-10z"/>
<path d="M3875 4850 c-9 -9 -42 -25 -73 -35 -31 -9 -61 -18 -67 -20 -24 -8 53
-4 115 6 73 12 90 26 60 52 -17 14 -20 14 -35 -3z"/>
<path d="M6890 4850 c23 -18 50 -26 50 -16 0 5 -60 36 -69 36 -3 0 5 -9 19
-20z"/>
<path d="M7170 4845 c-7 -8 -18 -15 -26 -15 -7 0 -29 -14 -48 -31 -34 -29 -36
-30 -65 -15 -42 22 -49 20 -15 -6 16 -13 34 -29 40 -37 10 -13 22 -6 75 43 35
33 66 63 67 68 6 14 -15 9 -28 -7z"/>
<path d="M4364 4823 c7 -7 131 -35 216 -48 41 -7 107 -24 135 -35 11 -5 31
-11 45 -15 91 -24 91 -24 79 -9 -6 8 -22 14 -35 14 -12 0 -26 5 -29 10 -3 6
-15 10 -26 10 -10 0 -27 4 -37 9 -29 14 -87 31 -110 31 -11 0 -24 5 -27 10 -3
6 -33 10 -66 10 -33 0 -59 4 -59 10 0 6 -21 10 -47 10 -25 0 -43 -3 -39 -7z"/>
<path d="M3665 4790 c-37 -9 -104 -39 -90 -40 22 -1 145 35 145 42 0 9 -14 9
-55 -2z"/>
<path d="M3430 4721 c-19 -11 -52 -26 -72 -35 -21 -9 -38 -20 -38 -26 0 -7 6
-8 18 -1 10 5 51 21 92 35 41 15 79 31 84 36 18 18 -47 10 -84 -9z"/>
<path d="M7255 4579 c-16 -4 -55 -7 -85 -8 -56 -1 -179 -23 -224 -41 -32 -12
-33 -40 -3 -68 25 -24 60 -28 102 -12 15 6 87 16 160 24 123 13 142 13 240 -4
145 -26 317 -92 402 -156 51 -39 84 -30 98 27 9 37 -18 61 -130 114 -136 66
-304 115 -397 115 -29 1 -71 4 -93 8 -22 4 -53 5 -70 1z"/>
<path d="M8926 4565 c4 -8 8 -15 10 -15 2 0 4 7 4 15 0 8 -4 15 -10 15 -5 0
-7 -7 -4 -15z"/>
<path d="M8950 4533 c0 -6 8 -17 18 -24 16 -13 16 -13 2 6 -8 11 -16 22 -17
24 -2 2 -3 0 -3 -6z"/>
<path d="M2578 4493 c7 -3 16 -2 19 1 4 3 -2 6 -13 5 -11 0 -14 -3 -6 -6z"/>
<path d="M2625 4480 c3 -5 13 -10 21 -10 8 0 12 5 9 10 -3 6 -13 10 -21 10 -8
0 -12 -4 -9 -10z"/>
<path d="M9100 4465 c-48 -25 -100 -24 -100 1 0 8 -5 14 -11 14 -7 0 -8 -7 -4
-17 4 -10 11 -32 16 -49 16 -54 32 -59 65 -21 16 18 49 47 73 65 53 38 30 42
-39 7z"/>
<path d="M4520 4295 c-172 -29 -198 -37 -280 -76 -139 -66 -310 -185 -310
-215 0 -8 7 -28 15 -44 23 -44 56 -39 113 13 129 120 232 174 413 218 134 33
188 33 318 2 l65 -16 23 27 c50 58 25 81 -105 95 -122 13 -153 13 -252 -4z"/>
<path d="M7295 3889 c-126 -18 -213 -58 -296 -136 -75 -71 -115 -170 -106
-262 13 -122 121 -266 247 -328 80 -40 206 -73 277 -73 67 0 176 37 265 91 77
47 116 87 155 162 24 44 28 64 27 132 0 70 -4 88 -33 143 -63 124 -177 212
-322 251 -99 26 -143 30 -214 20z m230 -228 c23 -10 53 -33 68 -50 37 -44 35
-82 -6 -127 -40 -44 -104 -56 -155 -30 -38 20 -82 75 -82 104 0 31 38 90 69
107 35 19 58 18 106 -4z"/>
<path d="M4607 3609 c-84 -24 -118 -41 -177 -87 -67 -53 -90 -81 -121 -149
-61 -132 -20 -274 115 -401 74 -69 173 -115 296 -138 105 -20 171 -8 291 51
112 55 178 115 219 201 84 170 -17 376 -239 489 -111 56 -261 69 -384 34z
m349 -208 c75 -34 107 -117 65 -168 -28 -33 -106 -56 -147 -43 -42 14 -94 73
-94 107 0 37 38 93 74 109 41 18 53 17 102 -5z"/>
<path d="M6828 2705 c-3 -3 -124 -19 -269 -35 -145 -16 -275 -32 -289 -35 -14
-3 -115 -12 -225 -20 -309 -24 -527 -53 -547 -73 -14 -14 22 -150 68 -250 65
-142 279 -325 424 -362 25 -6 62 -18 83 -25 69 -27 213 -37 297 -21 190 36
348 117 458 235 53 57 113 174 137 267 17 67 17 74 1 148 -10 42 -27 100 -38
127 -20 46 -23 49 -58 49 -20 0 -39 -2 -42 -5z m-195 -423 c120 -30 153 -47
142 -73 -9 -20 -124 -108 -191 -145 -104 -58 -185 -79 -314 -79 -107 0 -123 3
-224 38 -106 37 -197 79 -215 101 -6 7 -5 17 2 27 34 45 291 148 375 150 20 1
48 5 62 10 50 17 239 2 363 -29z"/>
<path d="M4346 7371 c-4 -7 -5 -15 -2 -18 9 -9 19 4 14 18 -4 11 -6 11 -12 0z"/>
<path d="M4880 7371 c0 -5 7 -14 15 -21 12 -10 15 -10 15 3 0 8 -7 17 -15 21
-8 3 -15 2 -15 -3z"/>
<path d="M6530 7064 c17 -15 33 -24 36 -21 5 5 -49 47 -61 47 -4 0 8 -12 25
-26z"/>
<path d="M4557 6891 c3 -13 -2 -21 -16 -26 -12 -3 -21 -13 -21 -21 0 -8 -4
-14 -10 -14 -5 0 -30 -16 -56 -35 -51 -40 -51 -42 3 -18 42 20 132 101 133
121 0 6 -9 12 -19 12 -14 0 -18 -5 -14 -19z"/>
<path d="M4462 6865 c0 -16 2 -22 5 -12 2 9 2 23 0 30 -3 6 -5 -1 -5 -18z"/>
<path d="M4781 6769 c6 -19 13 -45 17 -59 3 -14 16 -42 29 -62 12 -21 23 -41
23 -46 0 -4 26 -42 58 -84 31 -42 73 -103 92 -134 19 -32 44 -72 55 -89 11
-16 27 -43 35 -60 8 -16 30 -51 48 -78 30 -44 67 -116 125 -249 14 -31 66
-118 116 -194 50 -75 91 -141 91 -146 0 -4 4 -8 9 -8 9 0 1 25 -28 95 -5 11
-14 40 -21 65 -25 95 -196 462 -254 548 -20 28 -36 54 -36 57 0 9 -127 200
-168 254 -18 24 -71 85 -117 134 -75 80 -83 87 -74 56z"/>
<path d="M8714 6786 c-3 -8 -2 -22 3 -31 8 -13 10 -10 10 14 0 34 -5 39 -13
17z"/>
<path d="M8684 6762 c3 -5 0 -13 -6 -15 -8 -3 -6 -6 5 -6 19 -1 23 14 5 25 -6
4 -8 3 -4 -4z"/>
<path d="M8610 6714 c0 -8 5 -12 10 -9 6 3 10 10 10 16 0 5 -4 9 -10 9 -5 0
-10 -7 -10 -16z"/>
<path d="M8692 6706 c-1 -19 2 -23 18 -19 25 7 27 43 2 43 -11 0 -18 -8 -20
-24z"/>
<path d="M5726 6593 c-6 -14 -5 -15 5 -6 7 7 10 15 7 18 -3 3 -9 -2 -12 -12z"/>
<path d="M5601 6460 c-22 -22 -36 -40 -32 -40 4 0 25 18 46 40 21 22 36 40 32
40 -3 0 -24 -18 -46 -40z"/>
<path d="M4480 6478 c1 -27 155 -208 177 -208 7 0 13 11 13 25 0 39 30 31 95
-26 73 -64 64 -54 165 -180 92 -116 193 -260 226 -324 11 -22 31 -58 45 -80
l24 -40 3 63 c2 49 -2 73 -20 110 -13 26 -26 49 -29 52 -3 3 -24 39 -47 81
-86 158 -219 309 -325 371 -38 22 -90 60 -115 84 -39 38 -64 50 -95 45 -4 -1
-26 8 -49 19 -48 23 -68 25 -68 8z"/>
<path d="M5483 6359 c-29 -22 -53 -44 -53 -49 0 -16 5 -13 61 40 65 60 62 63
-8 9z"/>
<path d="M8571 5670 c0 -33 1 -34 11 -12 8 17 8 26 0 34 -9 9 -12 4 -11 -22z"/>
<path d="M8699 5643 c-1 -5 -1 -11 0 -15 0 -5 -6 -8 -14 -8 -8 0 -15 -5 -15
-10 0 -7 6 -7 19 -1 21 12 36 41 21 41 -6 0 -11 -3 -11 -7z"/>
<path d="M8568 5595 c-3 -14 -1 -25 3 -25 5 0 9 4 9 9 0 5 3 16 6 25 3 9 2 16
-4 16 -5 0 -12 -11 -14 -25z"/>
<path d="M8408 5493 c7 -3 16 -2 19 1 4 3 -2 6 -13 5 -11 0 -14 -3 -6 -6z"/>
</g>
</svg>
